<?xml version="1.0" encoding="UTF-8"?>
<svg id="Layer_2" data-name="Layer 2" xmlns="http://www.w3.org/2000/svg" viewBox="0 0 481.88 138.79">
  <defs>
    <style>
      .cls-1 {
        fill: none;
      }

      .cls-2 {
        stroke: #897962;
      }

      .cls-2, .cls-3 {
        fill: #897962;
        stroke-miterlimit: 10;
      }

      .cls-3 {
        stroke: #fff;
      }
    </style>
  </defs>
  <g id="Layer_1-2" data-name="Layer 1">
    <g>
      <rect class="cls-1" x="7.4" y="5.52" width="474.48" height="66.64"/>
      <path class="cls-3" d="M7.68,61.61c-5.13,0-7.18-2-7.18-4.5,0-1.88,1.2-3.71,3.53-3.71,4.45,0,2.68,5.53,5.64,5.53,3.19,0,3.82-5.36,3.82-14.37V14.69c0-1.48-.51-2.28-1.48-2.74-.51-.23-1.43-.34-2.39-.46v-2.22h17.1v2.22c-.74.06-1.88.17-2.45.4-.97.46-1.37,1.31-1.37,2.79v30.04c0,7.81-5.53,16.87-15.22,16.87Z"/>
      <path class="cls-3" d="M55.34,45.3c-2.91,2.57-7.01,4.33-12.03,4.33-8.49,0-13.34-5.02-13.34-13.62,0-9.29,5.59-16.13,15.56-16.13,7.53,0,11.63,4.16,11,12.08l-1.6,2.39h-16.7c.17,5.64,2.17,9.35,8.55,9.35,2.45,0,5.64-.51,8.44-1.48l.11,3.08ZM47.93,31.28c.4-4.73-1.03-8.09-4.28-8.09-3.42,0-5.02,3.48-5.36,8.32h9.63v-.23Z"/>
      <path class="cls-3" d="M70.44,49.58c-3.02,0-6.56-.68-9.52-1.94l-.17-7.92,1.94-.23c1.77,4.39,4.79,7.07,8.49,7.07,3.02,0,4.79-1.6,4.79-3.76s-1.88-3.08-4.39-3.82l-2.79-.8c-3.59-1.03-7.47-3.65-7.47-8.49,0-5.76,5.24-9.8,12.37-9.8,2.85,0,6.04.63,8.78,2.17l.46,6.9-2.39.17c-2.34-4.67-4.45-6.27-7.52-6.27-2.74,0-4.1,1.6-4.1,3.59,0,2.22,1.6,3.36,3.82,4.05l3.36.97c3.36.97,7.64,2.79,7.64,8.15,0,6.61-6.73,9.98-13.28,9.98Z"/>
      <path class="cls-3" d="M97.91,49.58c-3.02,0-6.56-.68-9.52-1.94l-.17-7.92,1.94-.23c1.77,4.39,4.79,7.07,8.49,7.07,3.02,0,4.79-1.6,4.79-3.76s-1.88-3.08-4.39-3.82l-2.79-.8c-3.59-1.03-7.47-3.65-7.47-8.49,0-5.76,5.24-9.8,12.37-9.8,2.85,0,6.04.63,8.78,2.17l.46,6.9-2.39.17c-2.34-4.67-4.45-6.27-7.52-6.27-2.74,0-4.1,1.6-4.1,3.59,0,2.22,1.6,3.36,3.82,4.05l3.36.97c3.36.97,7.64,2.79,7.64,8.15,0,6.61-6.73,9.98-13.28,9.98Z"/>
      <path class="cls-3" d="M140.84,45.3c-2.91,2.57-7.01,4.33-12.03,4.33-8.49,0-13.34-5.02-13.34-13.62,0-9.29,5.59-16.13,15.56-16.13,7.53,0,11.63,4.16,11,12.08l-1.6,2.39h-16.7c.17,5.64,2.17,9.35,8.55,9.35,2.45,0,5.64-.51,8.44-1.48l.11,3.08ZM133.43,31.28c.4-4.73-1.03-8.09-4.28-8.09-3.42,0-5.02,3.48-5.36,8.32h9.63v-.23Z"/>
      <path class="cls-3" d="M148.87,11.84c0-1.77-.29-2.34-2-2.45-.57,0-1.48.06-2.22.11v-2c2.22-.8,6.67-2,9.41-2s3.48,1.08,3.48,3.54v34.43c0,1.48.51,2.28,1.43,2.74.51.23,1.14.4,2.11.46v2.11h-15.73v-2.11c.8-.06,1.6-.17,2.11-.4.97-.4,1.42-1.31,1.42-2.79V11.84Z"/>
      <path class="cls-3" d="M174.52,49.58c-3.02,0-6.56-.68-9.52-1.94l-.17-7.92,1.94-.23c1.77,4.39,4.79,7.07,8.49,7.07,3.02,0,4.79-1.6,4.79-3.76s-1.88-3.08-4.39-3.82l-2.79-.8c-3.59-1.03-7.47-3.65-7.47-8.49,0-5.76,5.24-9.8,12.37-9.8,2.85,0,6.04.63,8.78,2.17l.46,6.9-2.39.17c-2.34-4.67-4.45-6.27-7.52-6.27-2.74,0-4.1,1.6-4.1,3.59,0,2.22,1.6,3.36,3.82,4.05l3.36.97c3.36.97,7.64,2.79,7.64,8.15,0,6.61-6.73,9.98-13.28,9.98Z"/>
      <path class="cls-3" d="M222.12,33.39c0,8.84-5.93,16.25-16.02,16.25-8.15,0-14.14-4.79-14.14-13.8,0-9.75,7.07-15.96,16.36-15.96,8.32,0,13.8,5.02,13.8,13.51ZM212.88,35.27c0-7.24-1.71-12.08-6.27-12.08-4.22,0-5.42,4.16-5.42,10.55,0,7.18,1.54,12.6,6.16,12.6,3.88,0,5.53-3.88,5.53-11.06Z"/>
      <path class="cls-3" d="M239.79,46.21c.51.23,1.14.4,2.05.46v2.11h-15.68v-2.11c.74-.06,1.54-.17,2.11-.4.97-.4,1.43-1.31,1.43-2.79v-17.33c0-1.77-.29-2.34-2.11-2.39-.57,0-1.48.06-2.11.11v-2c2.22-.8,6.67-2,9.41-2s3.48,1.08,3.48,3.53v1.6c2.91-3.02,6.44-5.13,10.49-5.13,5.7,0,8.27,3.02,8.27,9.98v13.62c0,1.48.51,2.28,1.43,2.74.51.23,1.14.4,2.11.46v2.11h-15.73v-2.11c.8-.06,1.6-.17,2.17-.4.91-.4,1.37-1.31,1.37-2.79v-11.17c0-4.33-.85-6.96-5.3-6.96-1.6,0-2.96.29-4.79.97v17.16c0,1.48.46,2.28,1.42,2.74Z"/>
      <path class="cls-3" d="M281.51,36.41h-16.59v-5.02h16.59v5.02Z"/>
      <path class="cls-3" d="M300.26,43.36c0,1.48.51,2.34,1.43,2.74.57.23,1.48.34,2.45.46v2.22h-17.16v-2.22c.8-.06,1.88-.17,2.45-.4.97-.46,1.42-1.31,1.42-2.79V14.69c0-1.48-.51-2.34-1.42-2.74-.57-.23-1.48-.34-2.45-.46v-2.22h17.16v2.22c-.8.06-1.94.17-2.51.4-.97.46-1.37,1.31-1.37,2.79v28.67ZM301.86,29.8l10.15-11.86c1.2-1.37,1.94-2.51,1.94-3.59,0-1.54-1.03-2.62-3.88-2.79v-2.28h15.62v2.28c-2.85.34-5.47,1.65-7.87,4.33l-8.61,9.58,10.49,16.25c1.77,2.79,3.82,4.39,6.5,4.85l-.17,2.22h-12.54l-11.63-18.58v-.4Z"/>
      <path class="cls-3" d="M352.59,42.91c0,2.79.97,3.54,3.25,3.54.29.06.63,0,.97,0l.06,1.42c-1.48.74-3.76,1.65-6.78,1.65-4.9,0-6.16-2.11-6.16-5.25v-.23c-1.88,2.96-4.9,5.42-8.89,5.42s-6.9-2.62-6.9-6.78c0-4.79,3.65-6.9,9.46-8.21l6.33-1.42v-1.14c0-3.93-1.25-5.93-5.64-5.93-2.45,0-5.87.51-9.23,1.31v-3.54c4.28-2.22,9.35-3.82,13.62-3.82,6.9,0,9.92,3.65,9.92,11v11.97ZM336.12,40.17c0,2.34,1.6,3.42,3.93,3.42,1.31,0,2.74-.4,3.88-.86v-7.24l-3.25.85c-2.91.74-4.56,1.65-4.56,3.82Z"/>
      <path class="cls-3" d="M360,23.75c-.51,0-1.31.06-1.88.11v-2c2.22-.8,6.61-2,9.46-2,2.68,0,3.36,1.08,3.36,3.53v1.31c3.14-3.88,6.5-4.79,9.24-4.79,6.78,0,10.49,5.47,10.49,13.05,0,10.89-7.7,16.59-18.41,16.59-.46,0-.91,0-1.31-.06v6.33c0,1.65.74,2.74,2.51,2.85.17.06,2.11.11,2.62.11v2.34h-17.27v-2.11c.74-.06,1.54-.17,2.11-.4.97-.4,1.37-1.31,1.37-2.79v-29.7c0-1.82-.29-2.39-2.28-2.39ZM370.94,26.2v19.5c1.08.4,2.34.63,3.54.63,5.24,0,7.47-5.36,7.47-11.29s-2.28-9.75-6.9-9.75c-1.2,0-2.51.23-4.1.91Z"/>
      <path class="cls-3" d="M397.68,11.84c0-1.77-.29-2.34-2-2.45-.57,0-1.48.06-2.22.11v-2c2.22-.8,6.67-2,9.41-2s3.48,1.08,3.48,3.54v34.43c0,1.48.51,2.28,1.42,2.74.51.23,1.14.4,2.11.46v2.11h-15.73v-2.11c.8-.06,1.6-.17,2.11-.4.97-.4,1.43-1.31,1.43-2.79V11.84Z"/>
      <path class="cls-3" d="M437.69,42.91c0,2.79.97,3.54,3.25,3.54.29.06.63,0,.97,0l.06,1.42c-1.48.74-3.76,1.65-6.78,1.65-4.9,0-6.16-2.11-6.16-5.25v-.23c-1.88,2.96-4.9,5.42-8.89,5.42s-6.9-2.62-6.9-6.78c0-4.79,3.65-6.9,9.46-8.21l6.33-1.42v-1.14c0-3.93-1.25-5.93-5.64-5.93-2.45,0-5.87.51-9.23,1.31v-3.54c4.28-2.22,9.35-3.82,13.62-3.82,6.9,0,9.92,3.65,9.92,11v11.97ZM421.22,40.17c0,2.34,1.6,3.42,3.93,3.42,1.31,0,2.74-.4,3.88-.86v-7.24l-3.25.85c-2.91.74-4.56,1.65-4.56,3.82Z"/>
      <path class="cls-3" d="M457.93,46.21c.51.23,1.14.4,2.05.46v2.11h-15.68v-2.11c.74-.06,1.54-.17,2.11-.4.97-.4,1.42-1.31,1.42-2.79v-17.33c0-1.77-.28-2.34-2.11-2.39-.57,0-1.48.06-2.11.11v-2c2.22-.8,6.67-2,9.41-2s3.48,1.08,3.48,3.53v1.6c2.91-3.02,6.44-5.13,10.49-5.13,5.7,0,8.27,3.02,8.27,9.98v13.62c0,1.48.51,2.28,1.42,2.74.51.23,1.14.4,2.11.46v2.11h-15.73v-2.11c.8-.06,1.6-.17,2.17-.4.91-.4,1.37-1.31,1.37-2.79v-11.17c0-4.33-.86-6.96-5.3-6.96-1.6,0-2.96.29-4.79.97v17.16c0,1.48.46,2.28,1.43,2.74Z"/>
    </g>
    <g>
      <rect class="cls-1" x="7.4" y="58.6" width="474.48" height="80.19"/>
      <path class="cls-2" d="M41.56,93.08l-2.05-5.25-9.07.33-1.92,4.87-3.32-.67,8.15-19.67,3.55.05,8.22,19.7-3.55.65ZM35.03,76.21l-3.57,9.12,7-.28-3.42-8.85Z"/>
      <path class="cls-2" d="M77.96,92.96l-.32-14.5-8.1,13.67-1.35.12-7.7-13.57.33,14.17-3.15.05-.45-19.9,3.72-.15,8.07,14.07,8.3-13.95,3.47-.03.42,19.92-3.25.08Z"/>
      <path class="cls-2" d="M96.83,92.81l-.9-19.37,12.9-.45.07,2.92-9.6.35.27,5.5,8.6-.12.1,2.87-8.55.12.25,5.27,9.02-.42.1,2.75-12.27.58Z"/>
      <path class="cls-2" d="M135.36,93.05l-5.45-7.52c-1.1,0-2.45-.03-3.4-.08l.23,7.3-3.22.03-.62-19.9c2.22-.07,4.92-.17,7.65-.17,5,0,7.27,2.72,7.27,6.62,0,3.22-1.8,5-4.45,5.67l5.22,6.97-3.22,1.07ZM130.41,75.43c-1.3,0-3,.08-4.27.12l.27,7.2c1.3.08,2.8.1,4.2.1,2.42,0,3.82-1.3,3.82-3.55s-1.42-3.87-4.02-3.87Z"/>
      <path class="cls-2" d="M155.91,92.66l-3.2-.08.15-19.77,3.27.02-.22,19.82Z"/>
      <path class="cls-2" d="M186.51,77.88c-1.25-1.38-3.22-2.37-5.45-2.37-4.7,0-7.17,3.02-7.17,7.12,0,4.35,2.45,7.25,7.15,7.25,2.15,0,3.85-.77,5.17-1.85l1.6,2.62c-1.72,1.45-4.15,2.27-7.05,2.27-6.45,0-10.35-3.87-10.35-10.37s4.12-10.22,10.5-10.22c3.02,0,5.6,1.22,7.22,3.2l-1.62,2.35Z"/>
      <path class="cls-2" d="M215.21,93.08l-2.05-5.25-9.07.33-1.92,4.87-3.32-.67,8.15-19.67,3.55.05,8.22,19.7-3.55.65ZM208.68,76.21l-3.57,9.12,7-.28-3.42-8.85Z"/>
      <path class="cls-2" d="M247.36,92.38h-3.17l-10.2-13.82.52,14.25-3.17.1-.62-19.72,3.17-.05,10.35,14.05.17-13.9,3.22.02-.27,19.07Z"/>
      <path class="cls-2" d="M285.76,92.88c-6.42,0-10.1-3.92-10.1-10.22,0-5.95,4.1-10.12,10-10.12,3.02,0,5.45.92,7.25,2.87l-1.67,2.35c-1.25-1.27-3.1-2.2-5.3-2.2-4.25,0-6.77,2.97-6.77,7.32s2.42,7.12,6.5,7.12c3.1,0,5.02-1.65,5.62-4.95l-6-.3.1-2.82,9.42.3c0,5.7-2.67,10.65-9.05,10.65Z"/>
      <path class="cls-2" d="M308.96,92.81l-.9-19.37,12.9-.45.07,2.92-9.6.35.27,5.5,8.6-.12.1,2.87-8.55.12.25,5.27,9.02-.42.1,2.75-12.27.58Z"/>
      <path class="cls-2" d="M351.58,92.38h-3.17l-10.2-13.82.52,14.25-3.17.1-.62-19.72,3.17-.05,10.35,14.05.17-13.9,3.22.02-.27,19.07Z"/>
      <path class="cls-2" d="M370.48,92.66l-3.2-.08.15-19.77,3.27.02-.22,19.82Z"/>
      <path class="cls-2" d="M386.16,92.78l-.62-2.05,9.77-15.17-9.82.1-.05-2.92,13.92.15.25,1.67-9.85,15.47,10.32-.12.05,2.72-13.97.15Z"/>
      <path class="cls-2" d="M428.41,93.08l-2.05-5.25-9.07.33-1.92,4.87-3.32-.67,8.15-19.67,3.55.05,8.22,19.7-3.55.65ZM421.88,76.21l-3.57,9.12,7-.28-3.42-8.85Z"/>
      <path class="cls-2" d="M458.08,92.58l-.22-7.92-10.02.17.2,7.92-3.2.03-.65-19.7,3.27-.05.28,8.8,10.02-.2-.28-8.75,3.25-.05.6,19.67-3.25.08Z"/>
      <path class="cls-2" d="M162.72,117.11c-1.27.05-2.7.1-4.05.1l.25,7.47-3.22.05-.75-20c1.97-.23,4.7-.5,7.27-.5,4.47,0,7.02,2.37,7.02,6.32s-2.35,6.37-6.52,6.55ZM162.2,107.06c-1.42,0-2.8.12-3.92.28l.3,7.12c1.25,0,2.62-.08,3.57-.12,2.32-.12,3.7-1.33,3.7-3.72,0-2.15-1.4-3.55-3.65-3.55Z"/>
      <path class="cls-2" d="M194.94,125.05l-5.45-7.52c-1.1,0-2.45-.03-3.4-.08l.23,7.3-3.22.03-.62-19.9c2.22-.07,4.92-.17,7.65-.17,5,0,7.27,2.72,7.27,6.62,0,3.22-1.8,5-4.45,5.67l5.22,6.97-3.22,1.07ZM190,107.43c-1.3,0-3,.08-4.27.12l.27,7.2c1.3.08,2.8.1,4.2.1,2.42,0,3.82-1.3,3.82-3.55s-1.42-3.87-4.02-3.87Z"/>
      <path class="cls-2" d="M220.37,124.96c-6,0-9.95-4.12-9.95-10.2s3.97-10.1,10.02-10.1,9.92,3.95,9.92,10.05-3.85,10.25-10,10.25ZM220.47,107.68c-4.12,0-6.67,3-6.67,7.22s2.52,7.12,6.65,7.12,6.65-3.12,6.65-7.12c0-4.22-2.55-7.22-6.62-7.22Z"/>
      <path class="cls-2" d="M246.65,125c-3.55,0-5.62-1.75-6.47-4.85l2.72-1.17c.55,1.97,1.75,2.95,3.45,2.95,2.32,0,3.4-1.5,3.22-4.27l-.85-12.77,3.27-.05.7,11.35c.05.87.1,1.72.1,2.27,0,3.92-2.07,6.55-6.15,6.55Z"/>
      <path class="cls-2" d="M267.95,124.81l-.9-19.37,12.9-.45.07,2.92-9.6.35.27,5.5,8.6-.12.1,2.87-8.55.12.25,5.27,9.02-.42.1,2.75-12.27.58Z"/>
      <path class="cls-2" d="M308.77,109.88c-1.25-1.38-3.22-2.37-5.45-2.37-4.7,0-7.17,3.02-7.17,7.12,0,4.35,2.45,7.25,7.15,7.25,2.15,0,3.85-.77,5.17-1.85l1.6,2.62c-1.72,1.45-4.15,2.27-7.05,2.27-6.45,0-10.35-3.87-10.35-10.37s4.12-10.22,10.5-10.22c3.02,0,5.6,1.22,7.22,3.2l-1.62,2.35Z"/>
      <path class="cls-2" d="M330.4,107.78l.82,16.87-3.27.12-.82-16.92-5.2.15-.08-2.9,14.17-.4.08,2.9-5.7.17Z"/>
    </g>
  </g>
</svg>