<?xml version="1.0" encoding="UTF-8"?>
<svg id="Layer_2" data-name="Layer 2" xmlns="http://www.w3.org/2000/svg" viewBox="0 0 480.47 138.96">
  <defs>
    <style>
      .cls-1 {
        fill: none;
      }

      .cls-2 {
        stroke: #000;
        stroke-width: .5px;
      }

      .cls-2, .cls-3 {
        stroke-miterlimit: 10;
      }

      .cls-3 {
        stroke: #fff;
      }
    </style>
  </defs>
  <g id="Layer_1-2" data-name="Layer 1">
    <g>
      <rect class="cls-1" x="5.99" y="5.69" width="474.48" height="66.64"/>
      <path class="cls-3" d="M6.87,63.75c-4.13,0-6.37-1.77-6.37-4.01,0-1.83,1.12-3.36,3.13-3.36,3.66,0,2.48,4.54,5.31,4.54,3.42,0,4.01-5.55,4.01-14.99V15.25c0-1.65-.47-2.48-1.53-2.89-.53-.24-1.83-.29-3.01-.41v-2.36h16.93v2.36c-.83.06-2.42.12-3.07.41-1.12.35-1.53,1.3-1.53,2.89v32.69c0,7.55-4.6,15.81-13.87,15.81Z"/>
      <path class="cls-3" d="M53.31,47.64c-2.95,2.48-7.26,3.72-11.21,3.72-8.56,0-13.16-5.37-13.16-13.92,0-9.79,5.84-16.52,15.16-16.52,6.84,0,11.03,4.42,10.44,12.39l-1.42,2.6h-17.58c.18,6.31,2.66,10.15,9.26,10.15,2.36,0,5.37-.41,8.38-1.47l.12,3.07ZM47.58,32.06c.18-4.6-1.65-7.73-5.43-7.73-4.01,0-6.08,3.48-6.55,8.44h11.92c0-.24,0-.47.06-.71Z"/>
      <path class="cls-3" d="M69,51.24c-2.83,0-6.31-.71-9.38-1.95l-.18-7.97,1.71-.18c1.59,4.54,4.78,6.96,8.38,6.96s5.43-1.59,5.43-4.07-2.01-3.42-4.66-4.25l-3.13-.94c-3.36-1.06-6.96-3.66-6.96-8.38,0-5.49,4.78-9.56,11.33-9.56,2.66,0,5.72.65,8.5,2.24l.41,6.84-2.12.18c-2.36-4.6-4.07-6.2-7.43-6.2-3.13,0-4.66,1.65-4.66,3.89s1.59,3.54,3.95,4.31l3.72,1.24c3.01.94,7.26,2.77,7.26,8.14,0,6.14-5.66,9.68-12.15,9.68Z"/>
      <path class="cls-3" d="M95.96,51.24c-2.83,0-6.31-.71-9.38-1.95l-.18-7.97,1.71-.18c1.59,4.54,4.78,6.96,8.38,6.96s5.43-1.59,5.43-4.07-2.01-3.42-4.66-4.25l-3.13-.94c-3.36-1.06-6.96-3.66-6.96-8.38,0-5.49,4.78-9.56,11.33-9.56,2.66,0,5.72.65,8.5,2.24l.41,6.84-2.12.18c-2.36-4.6-4.07-6.2-7.43-6.2-3.13,0-4.66,1.65-4.66,3.89s1.59,3.54,3.95,4.31l3.72,1.24c3.01.94,7.26,2.77,7.26,8.14,0,6.14-5.66,9.68-12.15,9.68Z"/>
      <path class="cls-3" d="M137.56,47.64c-2.95,2.48-7.26,3.72-11.21,3.72-8.56,0-13.16-5.37-13.16-13.92,0-9.79,5.84-16.52,15.16-16.52,6.84,0,11.03,4.42,10.44,12.39l-1.42,2.6h-17.58c.18,6.31,2.66,10.15,9.26,10.15,2.36,0,5.37-.41,8.38-1.47l.12,3.07ZM131.84,32.06c.18-4.6-1.65-7.73-5.43-7.73-4.01,0-6.08,3.48-6.55,8.44h11.92c0-.24,0-.47.06-.71Z"/>
      <path class="cls-3" d="M146.52,11.76c0-1.83-.29-2.42-2.06-2.48-.71,0-1.89.12-2.48.18v-2.07c2.01-.71,5.96-1.71,8.26-1.71,2.6,0,3.3,1.12,3.3,3.6v35.7c0,1.65.47,2.48,1.53,2.89.53.24,1.24.3,2.42.41v2.18h-14.93v-2.18c.83-.06,1.83-.12,2.42-.41,1.12-.35,1.53-1.24,1.53-2.89V11.76Z"/>
      <path class="cls-3" d="M171.25,51.24c-2.83,0-6.31-.71-9.38-1.95l-.18-7.97,1.71-.18c1.59,4.54,4.78,6.96,8.38,6.96s5.43-1.59,5.43-4.07-2.01-3.42-4.66-4.25l-3.13-.94c-3.36-1.06-6.96-3.66-6.96-8.38,0-5.49,4.78-9.56,11.33-9.56,2.66,0,5.72.65,8.5,2.24l.41,6.84-2.12.18c-2.36-4.6-4.07-6.2-7.43-6.2-3.13,0-4.66,1.65-4.66,3.89s1.59,3.54,3.95,4.31l3.72,1.24c3.01.94,7.26,2.77,7.26,8.14,0,6.14-5.66,9.68-12.15,9.68Z"/>
      <path class="cls-3" d="M217.68,34.78c0,8.79-5.96,16.58-15.64,16.58-8.02,0-13.63-5.31-13.63-14.16,0-9.85,6.96-16.29,15.7-16.29,8.14,0,13.57,5.49,13.57,13.87ZM210.01,36.72c0-7.38-2.06-12.39-7.49-12.39-5.02,0-6.49,4.31-6.49,10.68,0,7.32,1.95,12.92,7.38,12.92,4.54,0,6.61-4.01,6.61-11.21Z"/>
      <path class="cls-3" d="M234.73,47.88c.53.24,1.18.3,2.42.41v2.18h-14.93v-2.18c.83-.06,1.83-.12,2.42-.41,1.12-.35,1.53-1.24,1.53-2.89v-18c0-1.83-.35-2.42-2.12-2.42-.71,0-1.83.06-2.42.12v-2.07c1.95-.71,5.96-1.71,8.26-1.71,2.6,0,3.3,1.18,3.3,3.66v1.12c3.01-2.83,6.37-4.78,10.38-4.78,5.31,0,8.08,2.89,8.08,9.97v14.1c0,1.65.47,2.48,1.53,2.89.53.24,1.18.3,2.42.41v2.18h-14.93v-2.18c.83-.06,1.83-.12,2.42-.41,1.12-.35,1.53-1.24,1.53-2.89v-12.16c0-4.43-1.06-6.84-5.72-6.84-2.01,0-3.48.41-5.72,1.18v17.82c0,1.65.47,2.48,1.53,2.89Z"/>
      <path class="cls-3" d="M277.51,37.43h-17.17v-4.84h17.17v4.84Z"/>
      <path class="cls-3" d="M295.79,44.81c0,1.65.53,2.54,1.59,2.89.53.24,1.83.29,3.01.41v2.36h-16.93v-2.36c.77-.06,2.42-.12,3.01-.41,1.12-.35,1.53-1.3,1.53-2.89V15.25c0-1.65-.47-2.54-1.53-2.89-.53-.24-1.83-.29-3.01-.41v-2.36h16.93v2.36c-.83.06-2.42.12-3.07.41-1.06.35-1.53,1.3-1.53,2.89v29.56ZM297.68,30.41l10.62-12.63c1.12-1.3,1.77-2.42,1.77-3.36,0-1.3-1.06-2.24-3.72-2.48v-2.36h15.4v2.36c-2.95.29-5.55,1.71-7.97,4.48l-9.62,11.09,10.92,15.87c1.83,2.71,3.89,4.31,6.96,4.72l-.18,2.36h-11.09l-13.1-19.65v-.41Z"/>
      <path class="cls-3" d="M347.95,44.63c0,2.95,1.3,3.72,3.72,3.72.3,0,.59,0,1-.06v1.59c-1.48.65-3.19,1.3-5.67,1.3-4.72,0-6.08-2.07-6.08-5.07v-.06c-1.89,2.95-5.19,5.08-8.85,5.08-4.13,0-7.26-2.66-7.26-7.02s3.19-6.9,9.15-8.32l6.96-1.65v-1.24c0-4.72-1.42-6.55-6.02-6.55-2.54,0-6.2.53-9.21,1.24v-3.13c3.83-2.07,8.79-3.36,12.86-3.36,6.14,0,9.38,3.07,9.38,10.44v13.1ZM331.61,42.09c0,2.48,1.48,3.89,4.43,3.89,1.65,0,3.6-.53,4.9-1.18v-8.02l-3.72.94c-3.72.94-5.61,1.95-5.61,4.37Z"/>
      <path class="cls-3" d="M356.56,24.57c-.65,0-1.77.06-2.36.12v-2.07c2.01-.71,6.02-1.71,8.38-1.71,2.48,0,3.25,1.18,3.25,3.66v1.06c3.07-3.42,6.14-4.54,9.21-4.54,6.43,0,10.86,5.02,10.86,13.33,0,10.5-7.02,16.88-17.05,16.88-1.12,0-2.07-.06-3.01-.18v6.67c0,1.77.59,2.71,2.01,2.95.41.12,2.3.18,3.3.24v2.3h-16.29v-2.18c.83-.06,1.77-.12,2.42-.41,1.06-.35,1.53-1.24,1.53-2.89v-30.8c0-1.83-.35-2.42-2.24-2.42ZM365.83,27.4v19.47c1.47.59,3.3,1,5.13,1,5.61,0,8.03-5.07,8.03-11.51s-2.71-10.38-7.73-10.38c-1.53,0-3.25.35-5.43,1.42Z"/>
      <path class="cls-3" d="M393.85,11.76c0-1.83-.29-2.42-2.07-2.48-.71,0-1.89.12-2.48.18v-2.07c2.01-.71,5.96-1.71,8.26-1.71,2.6,0,3.3,1.12,3.3,3.6v35.7c0,1.65.47,2.48,1.53,2.89.53.24,1.24.3,2.42.41v2.18h-14.93v-2.18c.83-.06,1.83-.12,2.42-.41,1.12-.35,1.53-1.24,1.53-2.89V11.76Z"/>
      <path class="cls-3" d="M431.79,44.63c0,2.95,1.3,3.72,3.72,3.72.3,0,.59,0,1-.06v1.59c-1.48.65-3.19,1.3-5.67,1.3-4.72,0-6.08-2.07-6.08-5.07v-.06c-1.89,2.95-5.19,5.08-8.85,5.08-4.13,0-7.26-2.66-7.26-7.02s3.19-6.9,9.15-8.32l6.96-1.65v-1.24c0-4.72-1.42-6.55-6.02-6.55-2.54,0-6.2.53-9.21,1.24v-3.13c3.83-2.07,8.79-3.36,12.86-3.36,6.14,0,9.38,3.07,9.38,10.44v13.1ZM415.45,42.09c0,2.48,1.48,3.89,4.43,3.89,1.65,0,3.6-.53,4.9-1.18v-8.02l-3.72.94c-3.72.94-5.61,1.95-5.61,4.37Z"/>
      <path class="cls-3" d="M451.67,47.88c.53.24,1.18.3,2.42.41v2.18h-14.93v-2.18c.83-.06,1.83-.12,2.42-.41,1.12-.35,1.53-1.24,1.53-2.89v-18c0-1.83-.35-2.42-2.12-2.42-.71,0-1.83.06-2.42.12v-2.07c1.95-.71,5.96-1.71,8.26-1.71,2.6,0,3.3,1.18,3.3,3.66v1.12c3.01-2.83,6.37-4.78,10.38-4.78,5.31,0,8.08,2.89,8.08,9.97v14.1c0,1.65.47,2.48,1.53,2.89.53.24,1.18.3,2.42.41v2.18h-14.93v-2.18c.83-.06,1.83-.12,2.42-.41,1.12-.35,1.53-1.24,1.53-2.89v-12.16c0-4.43-1.06-6.84-5.72-6.84-2.01,0-3.48.41-5.72,1.18v17.82c0,1.65.47,2.48,1.53,2.89Z"/>
    </g>
    <g>
      <rect class="cls-1" x="5.99" y="58.77" width="474.48" height="80.19"/>
      <path class="cls-2" d="M40.15,93.26l-2.05-5.25-9.07.33-1.92,4.87-3.32-.67,8.15-19.67,3.55.05,8.22,19.7-3.55.65ZM33.62,76.38l-3.57,9.12,7-.28-3.42-8.85Z"/>
      <path class="cls-2" d="M76.54,93.13l-.32-14.5-8.1,13.67-1.35.12-7.7-13.57.33,14.17-3.15.05-.45-19.9,3.72-.15,8.07,14.07,8.3-13.95,3.47-.03.42,19.92-3.25.08Z"/>
      <path class="cls-2" d="M95.42,92.98l-.9-19.37,12.9-.45.07,2.92-9.6.35.27,5.5,8.6-.12.1,2.87-8.55.12.25,5.27,9.02-.42.1,2.75-12.27.58Z"/>
      <path class="cls-2" d="M133.95,93.23l-5.45-7.52c-1.1,0-2.45-.03-3.4-.08l.23,7.3-3.22.03-.62-19.9c2.22-.07,4.92-.17,7.65-.17,5,0,7.27,2.72,7.27,6.62,0,3.22-1.8,5-4.45,5.67l5.22,6.97-3.22,1.07ZM129,75.61c-1.3,0-3,.08-4.27.12l.27,7.2c1.3.08,2.8.1,4.2.1,2.42,0,3.82-1.3,3.82-3.55s-1.42-3.87-4.02-3.87Z"/>
      <path class="cls-2" d="M154.5,92.83l-3.2-.08.15-19.77,3.27.02-.22,19.82Z"/>
      <path class="cls-2" d="M185.1,78.06c-1.25-1.38-3.22-2.37-5.45-2.37-4.7,0-7.17,3.02-7.17,7.12,0,4.35,2.45,7.25,7.15,7.25,2.15,0,3.85-.77,5.17-1.85l1.6,2.62c-1.72,1.45-4.15,2.27-7.05,2.27-6.45,0-10.35-3.87-10.35-10.37s4.12-10.22,10.5-10.22c3.02,0,5.6,1.22,7.22,3.2l-1.62,2.35Z"/>
      <path class="cls-2" d="M213.8,93.26l-2.05-5.25-9.07.33-1.92,4.87-3.32-.67,8.15-19.67,3.55.05,8.22,19.7-3.55.65ZM207.27,76.38l-3.57,9.12,7-.28-3.42-8.85Z"/>
      <path class="cls-2" d="M245.95,92.56h-3.17l-10.2-13.82.52,14.25-3.17.1-.62-19.72,3.17-.05,10.35,14.05.17-13.9,3.22.02-.28,19.07Z"/>
      <path class="cls-2" d="M284.35,93.06c-6.42,0-10.1-3.92-10.1-10.22,0-5.95,4.1-10.12,10-10.12,3.02,0,5.45.92,7.25,2.87l-1.67,2.35c-1.25-1.27-3.1-2.2-5.3-2.2-4.25,0-6.77,2.97-6.77,7.32s2.42,7.12,6.5,7.12c3.1,0,5.02-1.65,5.62-4.95l-6-.3.1-2.82,9.42.3c0,5.7-2.67,10.65-9.05,10.65Z"/>
      <path class="cls-2" d="M307.55,92.98l-.9-19.37,12.9-.45.07,2.92-9.6.35.28,5.5,8.6-.12.1,2.87-8.55.12.25,5.27,9.02-.42.1,2.75-12.27.58Z"/>
      <path class="cls-2" d="M350.17,92.56h-3.17l-10.2-13.82.53,14.25-3.17.1-.62-19.72,3.17-.05,10.35,14.05.17-13.9,3.22.02-.27,19.07Z"/>
      <path class="cls-2" d="M369.07,92.83l-3.2-.08.15-19.77,3.27.02-.22,19.82Z"/>
      <path class="cls-2" d="M384.75,92.96l-.62-2.05,9.77-15.17-9.82.1-.05-2.92,13.92.15.25,1.67-9.85,15.47,10.32-.12.05,2.72-13.97.15Z"/>
      <path class="cls-2" d="M427,93.26l-2.05-5.25-9.07.33-1.92,4.87-3.32-.67,8.15-19.67,3.55.05,8.22,19.7-3.55.65ZM420.47,76.38l-3.57,9.12,7-.28-3.42-8.85Z"/>
      <path class="cls-2" d="M456.67,92.76l-.22-7.92-10.02.17.2,7.92-3.2.03-.65-19.7,3.27-.05.28,8.8,10.02-.2-.28-8.75,3.25-.05.6,19.67-3.25.08Z"/>
      <path class="cls-2" d="M161.31,117.28c-1.27.05-2.7.1-4.05.1l.25,7.47-3.22.05-.75-20c1.97-.23,4.7-.5,7.27-.5,4.47,0,7.02,2.37,7.02,6.32s-2.35,6.37-6.52,6.55ZM160.79,107.24c-1.42,0-2.8.12-3.92.28l.3,7.12c1.25,0,2.62-.08,3.57-.12,2.32-.12,3.7-1.33,3.7-3.72,0-2.15-1.4-3.55-3.65-3.55Z"/>
      <path class="cls-2" d="M193.53,125.23l-5.45-7.52c-1.1,0-2.45-.03-3.4-.08l.23,7.3-3.22.03-.62-19.9c2.22-.07,4.92-.17,7.65-.17,5,0,7.27,2.72,7.27,6.62,0,3.22-1.8,5-4.45,5.67l5.22,6.97-3.22,1.07ZM188.59,107.61c-1.3,0-3,.08-4.27.12l.27,7.2c1.3.08,2.8.1,4.2.1,2.42,0,3.82-1.3,3.82-3.55s-1.42-3.87-4.02-3.87Z"/>
      <path class="cls-2" d="M218.96,125.13c-6,0-9.95-4.12-9.95-10.2s3.97-10.1,10.02-10.1,9.92,3.95,9.92,10.05-3.85,10.25-10,10.25ZM219.06,107.86c-4.12,0-6.67,3-6.67,7.22s2.52,7.12,6.65,7.12,6.65-3.12,6.65-7.12c0-4.22-2.55-7.22-6.62-7.22Z"/>
      <path class="cls-2" d="M245.24,125.18c-3.55,0-5.62-1.75-6.47-4.85l2.72-1.17c.55,1.97,1.75,2.95,3.45,2.95,2.32,0,3.4-1.5,3.22-4.27l-.85-12.77,3.27-.05.7,11.35c.05.87.1,1.72.1,2.27,0,3.92-2.07,6.55-6.15,6.55Z"/>
      <path class="cls-2" d="M266.54,124.98l-.9-19.37,12.9-.45.08,2.92-9.6.35.27,5.5,8.6-.12.1,2.87-8.55.12.25,5.27,9.02-.42.1,2.75-12.27.58Z"/>
      <path class="cls-2" d="M307.36,110.06c-1.25-1.38-3.22-2.37-5.45-2.37-4.7,0-7.17,3.02-7.17,7.12,0,4.35,2.45,7.25,7.15,7.25,2.15,0,3.85-.77,5.17-1.85l1.6,2.62c-1.72,1.45-4.15,2.27-7.05,2.27-6.45,0-10.35-3.87-10.35-10.37s4.12-10.22,10.5-10.22c3.02,0,5.6,1.22,7.22,3.2l-1.62,2.35Z"/>
      <path class="cls-2" d="M328.99,107.96l.83,16.87-3.27.12-.82-16.92-5.2.15-.08-2.9,14.17-.4.08,2.9-5.7.17Z"/>
    </g>
  </g>
</svg>